<?xml version="1.0" encoding="iso-8859-1"?>
<!-- Generator: Adobe Illustrator 17.1.0, SVG Export Plug-In . SVG Version: 6.00 Build 0)  -->
<!DOCTYPE svg PUBLIC "-//W3C//DTD SVG 1.1//EN" "http://www.w3.org/Graphics/SVG/1.1/DTD/svg11.dtd">
<svg version="1.1" id="Capa_1" xmlns="http://www.w3.org/2000/svg" xmlns:xlink="http://www.w3.org/1999/xlink" x="0px" y="0px"
	 viewBox="0 0 214.396 214.396" style="enable-background:new 0 0 214.396 214.396;" xml:space="preserve">
<path d="M150.53,40.98v33.114c0,2.761-2.238,5-5,5h-76.97c-2.762,0-5-2.239-5-5V40.996c-9.469,0.201-17.115,7.952-17.115,17.469
	v138.443c0,9.643,7.846,17.488,17.488,17.488h86.529c9.643,0,17.488-7.845,17.488-17.488V58.465
	C167.951,48.845,160.142,41.017,150.53,40.98z M63.642,99.206c0-1.381,1.119-2.5,2.5-2.5h82.113c1.381,0,2.5,1.119,2.5,2.5v18.861
	c0,1.381-1.119,2.5-2.5,2.5H66.142c-1.381,0-2.5-1.119-2.5-2.5V99.206z M85.819,188.666c0,3.37-2.732,6.102-6.102,6.102H68.577
	c-3.37,0-6.102-2.732-6.102-6.102v-1.087c0-3.37,2.732-6.102,6.102-6.102h11.139c3.37,0,6.102,2.732,6.102,6.102V188.666z
	 M85.819,166.158c0,3.37-2.732,6.102-6.102,6.102H68.577c-3.37,0-6.102-2.732-6.102-6.102v-1.087c0-3.37,2.732-6.102,6.102-6.102
	h11.139c3.37,0,6.102,2.732,6.102,6.102V166.158z M85.819,143.65c0,3.37-2.732,6.102-6.102,6.102H68.577
	c-3.37,0-6.102-2.732-6.102-6.102v-1.087c0-3.37,2.732-6.102,6.102-6.102h11.139c3.37,0,6.102,2.732,6.102,6.102V143.65z
	 M118.87,188.666c0,3.37-2.732,6.102-6.102,6.102h-11.139c-3.37,0-6.102-2.732-6.102-6.102v-1.087c0-3.37,2.732-6.102,6.102-6.102
	h11.139c3.37,0,6.102,2.732,6.102,6.102V188.666z M118.87,166.158c0,3.37-2.732,6.102-6.102,6.102h-11.139
	c-3.37,0-6.102-2.732-6.102-6.102v-1.087c0-3.37,2.732-6.102,6.102-6.102h11.139c3.37,0,6.102,2.732,6.102,6.102V166.158z
	 M118.87,143.65c0,3.37-2.732,6.102-6.102,6.102h-11.139c-3.37,0-6.102-2.732-6.102-6.102v-1.087c0-3.37,2.732-6.102,6.102-6.102
	h11.139c3.37,0,6.102,2.732,6.102,6.102V143.65z M151.921,188.666c0,3.37-2.732,6.102-6.102,6.102H134.68
	c-3.37,0-6.102-2.732-6.102-6.102v-1.087c0-3.37,2.732-6.102,6.102-6.102h11.139c3.37,0,6.102,2.732,6.102,6.102V188.666z
	 M151.921,166.158c0,3.37-2.732,6.102-6.102,6.102H134.68c-3.37,0-6.102-2.732-6.102-6.102v-1.087c0-3.37,2.732-6.102,6.102-6.102
	h11.139c3.37,0,6.102,2.732,6.102,6.102V166.158z M151.921,143.65c0,3.37-2.732,6.102-6.102,6.102H134.68
	c-3.37,0-6.102-2.732-6.102-6.102v-1.087c0-3.37,2.732-6.102,6.102-6.102h11.139c3.37,0,6.102,2.732,6.102,6.102V143.65z M73.561,0
	v69.094h66.97V0H73.561z M86.77,11.488h21.235c2.762,0,5,2.239,5,5s-2.238,5-5,5H86.77c-2.762,0-5-2.239-5-5
	S84.008,11.488,86.77,11.488z M111.957,59.988H86.77c-2.762,0-5-2.239-5-5s2.238-5,5-5h25.188c2.762,0,5,2.239,5,5
	S114.719,59.988,111.957,59.988z M124.874,40.738H86.77c-2.762,0-5-2.239-5-5s2.238-5,5-5h38.104c2.762,0,5,2.239,5,5
	S127.636,40.738,124.874,40.738z"/>
<g>
</g>
<g>
</g>
<g>
</g>
<g>
</g>
<g>
</g>
<g>
</g>
<g>
</g>
<g>
</g>
<g>
</g>
<g>
</g>
<g>
</g>
<g>
</g>
<g>
</g>
<g>
</g>
<g>
</g>
</svg>
